:FULLY-SPECIFIED
:FORCE-ALL-JOINTS-BE-3DOF
:DEGREES
2039
root -3.08532 14.8884 21.9659 895.658 -8.08724 173.697
lfemur -10.7208 9.71704 -20.3134
ltibia 54.3864 0 0
lfoot -26.0278 26.6615 0
ltoes -37.3143 0 0
rfemur -38.5229 -9.19842 4.9434
rtibia 45.4284 0 0
rfoot 23.8242 -4.33145 0
rtoes 7.26823 0 0
lowerback 14.4665 0.941682 -7.07324
upperback 0.545414 0.0441993 1.58184
thorax -7.65998 0.258337 5.65742
lowerneck -3.62215 -4.77327 -7.22298
upperneck 9.99857 -6.48546 0.812408
head 4.29035 -3.48533 0.906584
lclavicle -7.5287e-14 4.21485e-15 0
lhumerus -46.9152 -6.74391 100.919
lradius 82.7631 0 0
lwrist 38.2913 0 0
lhand -26.956 29.9319 0
lfingers 7.12502 0 0
lthumb -0.376054 -665.966 0
rclavicle -7.5287e-14 4.21485e-15 0
rhumerus 23.4261 -15.0484 -97.9947
rradius 31.4227 0 0
rwrist 56.983 0 0
rhand -1.20582 -394.881 0
rfingers 7.12502 0 0
rthumb 24.4329 296.678 0
2040
root -3.10649 14.884 21.8086 895.29 -9.16376 173.575
lfemur -9.66156 9.07635 -20.5284
ltibia 54.0921 0 0
lfoot -26.4688 26.5149 0
ltoes -37.856 0 0
rfemur -39.1121 -9.35287 4.82879
rtibia 44.5008 0 0
rfoot 24.5086 -3.55785 0
rtoes 7.42341 0 0
lowerback 14.586 1.05102 -7.24562
upperback 0.597653 0.147116 1.49678
thorax -7.68144 0.309577 5.64666
lowerneck -3.57695 -5.18787 -7.52635
upperneck 10.2377 -7.04887 1.07616
head 4.36501 -3.77126 1.01283
lclavicle -7.67127e-14 1.67178e-15 0
lhumerus -48.7238 -7.57486 101.871
lradius 85.2987 0 0
lwrist 41.018 0 0
lhand -26.9038 29.7466 0
lfingers 7.12502 0 0
lthumb -0.325731 -663.603 0
rclavicle -7.67127e-14 1.67178e-15 0
rhumerus 26.847 -15.8536 -97.9377
rradius 28.9606 0 0
rwrist 61.0481 0 0
rhand -1.4098 -394.73 0
rfingers 7.12502 0 0
rthumb 24.2375 296.801 0
2041
root -3.12765 14.8797 21.6513 894.943 -10.1976 173.463
lfemur -8.64359 8.45462 -20.7321
ltibia 53.8279 0 0
lfoot -26.8758 26.3576 0
ltoes -38.3795 0 0
rfemur -39.6828 -9.49221 4.73207
rtibia 43.6209 0 0
rfoot 25.1361 -2.81651 0
rtoes 7.56786 0 0
lowerback 14.6983 1.15798 -7.40698
upperback 0.647102 0.249287 1.41427
thorax -7.70142 0.36027 5.63255
lowerneck -3.53198 -5.5887 -7.81884
upperneck 10.4618 -7.59347 1.33487
head 4.43494 -4.04743 1.11704
lclavicle -7.80154e-14 -7.9065e-16 0
lhumerus -50.4786 -8.38668 102.794
lradius 87.7539 0 0
lwrist 43.6392 0 0
lhand -26.8406 29.6032 0
lfingers 7.12502 0 0
lthumb -0.264717 -661.436 0
rclavicle -7.80154e-14 -7.9065e-16 0
rhumerus 30.1593 -16.6107 -97.8505
rradius 26.5934 0 0
rwrist 64.9153 0 0
rhand -1.61006 -394.591 0
rfingers 7.12502 0 0
rthumb 24.0456 296.914 0
2042
root -3.14881 14.8753 21.494 894.618 -11.1859 173.36
lfemur -7.67018 7.85432 -20.9227
ltibia 53.5964 0 0
lfoot -27.246 26.1893 0
ltoes -38.8825 0 0
rfemur -40.2335 -9.61523 4.65401
rtibia 42.7931 0 0
rfoot 25.7029 -2.11026 0
rtoes 7.7015 0 0
lowerback 14.8026 1.26222 -7.55661
upperback 0.693493 0.350411 1.33456
thorax -7.71974 0.410261 5.615
lowerneck -3.48738 -5.97454 -8.09949
upperneck 10.6696 -8.11755 1.58797
head 4.49974 -4.31298 1.21898
lclavicle -7.91874e-14 -3.16021e-15 0
lhumerus -52.1761 -9.17558 103.685
lradius 90.1175 0 0
lwrist 46.1434 0 0
lhand -26.7659 29.5046 0
lfingers 7.12502 0 0
lthumb -0.192589 -659.504 0
rclavicle -7.91874e-14 -3.16021e-15 0
rhumerus 33.3508 -17.3165 -97.7315
rradius 24.3303 0 0
rwrist 68.5666 0 0
rhand -1.80585 -394.462 0
rfingers 7.12502 0 0
rthumb 23.8581 297.015 0
2043
root -3.16997 14.871 21.3367 894.315 -12.1254 173.267
lfemur -6.74465 7.27795 -21.0988
ltibia 53.4001 0 0
lfoot -27.5768 26.0102 0
ltoes -39.363 0 0
rfemur -40.7621 -9.72074 4.59537
rtibia 42.022 0 0
rfoot 26.2056 -1.44191 0
rtoes 7.82422 0 0
lowerback 14.8982 1.36338 -7.69381
upperback 0.736557 0.450187 1.2579
thorax -7.73622 0.459399 5.59396
lowerneck -3.44332 -6.34413 -8.36733
upperneck 10.8598 -8.61943 1.83486
head 4.55899 -4.56703 1.31842
lclavicle -8.02208e-14 -5.42466e-15 0
lhumerus -53.8129 -9.93775 104.543
lradius 92.3782 0 0
lwrist 48.5186 0 0
lhand -26.6792 29.4539 0
lfingers 7.12502 0 0
lthumb -0.108922 -657.844 0
rclavicle -8.02208e-14 -5.42466e-15 0
rhumerus 36.4092 -17.9678 -97.5796
rradius 22.1803 0 0
rwrist 71.9837 0 0
rhand -1.99644 -394.347 0
rfingers 7.12502 0 0
rthumb 23.6755 297.105 0
2044
root -3.19113 14.8666 21.1794 894.038 -13.0131 173.184
lfemur -5.87032 6.72799 -21.2586
ltibia 53.2413 0 0
lfoot -27.8654 25.8202 0
ltoes -39.8189 0 0
rfemur -41.267 -9.80754 4.5569
rtibia 41.312 0 0
rfoot 26.6404 -0.81428 0
rtoes 7.93592 0 0
lowerback 14.9843 1.46112 -7.81788
upperback 0.776028 0.548315 1.18454
thorax -7.7507 0.507531 5.56933
lowerneck -3.39995 -6.69624 -8.6214
upperneck 11.0311 -9.09741 2.07498
head 4.61228 -4.80871 1.41514
lclavicle -8.11079e-14 -7.57177e-15 0
lhumerus -55.3855 -10.6694 105.366
lradius 94.5251 0 0
lwrist 50.7533 0 0
lhand -26.5801 29.4538 0
lfingers 7.12502 0 0
lthumb -0.0132931 -656.493 0
rclavicle -8.11079e-14 -7.57177e-15 0
rhumerus 39.3222 -18.5614 -97.3933
rradius 20.1526 0 0
rwrist 75.1484 0 0
rhand -2.18108 -394.245 0
rfingers 7.12502 0 0
rthumb 23.4985 297.182 0
2045
root -3.2123 14.8623 21.0221 893.786 -13.8461 173.111
lfemur -5.05053 6.20692 -21.4007
ltibia 53.1226 0 0
lfoot -28.1092 25.6193 0
ltoes -40.2482 0 0
rfemur -41.7463 -9.87444 4.53936
rtibia 40.6676 0 0
rfoot 27.0037 -0.230194 0
rtoes 8.03649 0 0
lowerback 15.0602 1.5551 -7.92811
upperback 0.811637 0.644493 1.11473
thorax -7.76299 0.554506 5.54104
lowerneck -3.35743 -7.02964 -8.86074
upperneck 11.1823 -9.5498 2.30773
head 4.6592 -5.03714 1.50891
lclavicle -8.1841e-14 -9.5893e-15 0
lhumerus -56.8906 -11.3667 106.153
lradius 96.5467 0 0
lwrist 52.8357 0 0
lhand -26.4681 29.5075 0
lfingers 7.12502 0 0
lthumb 0.0947222 -655.491 0
rclavicle -8.1841e-14 -9.5893e-15 0
rhumerus 42.0776 -19.0944 -97.1712
rradius 18.2564 0 0
rwrist 78.0427 0 0
rhand -2.35903 -394.157 0
rfingers 7.12502 0 0
rthumb 23.328 297.246 0
2046
root -3.23346 14.8579 20.8648 893.562 -14.6213 173.049
lfemur -4.2886 5.71722 -21.5235
ltibia 53.0464 0 0
lfoot -28.3053 25.4074 0
ltoes -40.6487 0 0
rfemur -42.1982 -9.92023 4.54352
rtibia 40.0934 0 0
rfoot 27.2919 0.307531 0
rtoes 8.12584 0 0
lowerback 15.1251 1.64495 -8.02379
upperback 0.843117 0.738419 1.04873
thorax -7.77293 0.600169 5.50901
lowerneck -3.31592 -7.34307 -9.08439
upperneck 11.3122 -9.9749 2.53254
head 4.69933 -5.25144 1.5995
lclavicle -8.24123e-14 -1.1465e-14 0
lhumerus -58.3246 -12.0258 106.903
lradius 98.4321 0 0
lwrist 54.754 0 0
lhand -26.3429 29.6177 0
lfingers 7.12502 0 0
lthumb 0.215548 -654.874 0
rclavicle -8.24123e-14 -1.1465e-14 0
rhumerus 44.663 -19.5634 -96.9122
rradius 16.5008 0 0
rwrist 80.6482 0 0
rhand -2.52955 -394.085 0
rfingers 7.12502 0 0
rthumb 23.1646 297.296 0
2047
root -3.25462 14.8535 20.7075 893.366 -15.3357 172.998
lfemur -3.58785 5.26138 -21.6253
ltibia 53.0152 0 0
lfoot -28.4511 25.1844 0
ltoes -41.0183 0 0
rfemur -42.6209 -9.94371 4.57013
rtibia 39.5937 0 0
rfoot 27.5015 0.796075 0
rtoes 8.20387 0 0
lowerback 15.1783 1.73034 -8.10423
upperback 0.870199 0.829793 0.986769
thorax -7.78035 0.64437 5.47318
lowerneck -3.27556 -7.63531 -9.29138
upperneck 11.4193 -10.371 2.74883
head 4.73226 -5.45076 1.68667
lclavicle -8.2814e-14 -1.31867e-14 0
lhumerus -59.6841 -12.6431 107.613
lradius 100.17 0 0
lwrist 56.4966 0 0
lhand -26.2039 29.7875 0
lfingers 7.12502 0 0
lthumb 0.349608 -654.681 0
rclavicle -8.2814e-14 -1.31867e-14 0
rhumerus 47.0662 -19.9655 -96.6147
rradius 14.895 0 0
rwrist 82.9469 0 0
rhand -2.6919 -394.028 0
rfingers 7.12502 0 0
rthumb 23.009 297.331 0
2048
root -3.27578 14.8492 20.5502 893.201 -15.9861 172.958
lfemur -2.9516 4.84188 -21.7046
ltibia 53.0315 0 0
lfoot -28.5439 24.9505 0
ltoes -41.3549 0 0
rfemur -43.0126 -9.9437 4.61996
rtibia 39.1731 0 0
rfoot 27.6286 1.23262 0
rtoes 8.27047 0 0
lowerback 15.2191 1.81091 -8.16871
upperback 0.892617 0.918313 0.929114
thorax -7.78506 0.686954 5.43345
lowerneck -3.23653 -7.90511 -9.48075
upperneck 11.5026 -10.7365 2.95601
head 4.75759 -5.6342 1.77021
lclavicle -8.30384e-14 -1.47421e-14 0
lhumerus -60.9658 -13.2145 108.281
lradius 101.749 0 0
lwrist 58.0518 0 0
lhand -26.0508 30.0198 0
lfingers 7.12502 0 0
lthumb 0.497326 -654.949 0
rclavicle -8.30384e-14 -1.47421e-14 0
rhumerus 49.2749 -20.2974 -96.2775
rradius 13.4481 0 0
rwrist 84.9206 0 0
rhand -2.84533 -393.989 0
rfingers 7.12502 0 0
rthumb 22.862 297.351 0
2049
root -3.29695 14.8448 20.3929 893.068 -16.5697 172.93
lfemur -2.3832 4.46121 -21.7598
ltibia 53.0977 0 0
lfoot -28.5809 24.7056 0
ltoes -41.6565 0 0
rfemur -43.3715 -9.91898 4.69376
rtibia 38.8361 0 0
rfoot 27.6698 1.61434 0
rtoes 8.32555 0 0
lowerback 15.2467 1.88632 -8.21653
upperback 0.910102 1.00368 0.87601
thorax -7.7869 0.727771 5.38976
lowerneck -3.19897 -8.15124 -9.65154
upperneck 11.5607 -11.0695 3.1535
head 4.7749 -5.8009 1.84988
lclavicle -8.30778e-14 -1.61189e-14 0
lhumerus -62.1661 -13.7364 108.907
lradius 103.159 0 0
lwrist 59.4077 0 0
lhand -25.8831 30.3175 0
lfingers 7.12502 0 0
lthumb 0.659126 -655.717 0
rclavicle -8.30778e-14 -1.61189e-14 0
rhumerus 51.2769 -20.556 -95.8993
rradius 12.1693 0 0
rwrist 86.5511 0 0
rhand -2.98912 -393.967 0
rfingers 7.12502 0 0
rthumb 22.7242 297.353 0
2050
root -3.31811 14.8405 20.2356 892.967 -17.0833 172.914
lfemur -1.88595 4.12184 -21.7893
ltibia 53.2163 0 0
lfoot -28.5594 24.4495 0
ltoes -41.921 0 0
rfemur -43.6957 -9.86836 4.79229
rtibia 38.5872 0 0
rfoot 27.6214 1.93843 0
rtoes 8.36899 0 0
lowerback 15.2605 1.95622 -8.24699
upperback 0.922387 1.08559 0.827707
thorax -7.78569 0.766668 5.34202
lowerneck -3.16304 -8.37245 -9.80279
upperneck 11.5923 -11.3685 3.34072
head 4.78378 -5.94999 1.92546
lclavicle -8.29243e-14 -1.73051e-14 0
lhumerus -63.2816 -14.205 109.489
lradius 104.387 0 0
lwrist 60.5528 0 0
lhand -25.7003 30.6836 0
lfingers 7.12502 0 0
lthumb 0.835433 -657.022 0
rclavicle -8.29243e-14 -1.73051e-14 0
rhumerus 53.0598 -20.7382 -95.4786
rradius 11.0677 0 0
rwrist 87.8202 0 0
rhand -3.1225 -393.964 0
rfingers 7.12502 0 0
rthumb 22.5963 297.339 0
2051
root -3.33927 14.8361 20.0783 892.901 -17.524 172.91
lfemur -1.46318 3.82627 -21.7915
ltibia 53.3898 0 0
lfoot -28.4768 24.1824 0
ltoes -42.1462 0 0
rfemur -43.9835 -9.79064 4.91632
rtibia 38.4308 0 0
rfoot 27.4797 2.20206 0
rtoes 8.40071 0 0
lowerback 15.2595 2.02026 -8.25939
upperback 0.929203 1.16374 0.784456
thorax -7.78127 0.803491 5.29017
lowerneck -3.12889 -8.56751 -9.93353
upperneck 11.5963 -11.6318 3.5171
head 4.78381 -6.08059 1.99671
lclavicle -8.25702e-14 -1.82882e-14 0
lhumerus -64.3089 -14.6164 110.025
lradius 105.423 0 0
lwrist 61.4752 0 0
lhand -25.5021 31.1209 0
lfingers 7.12502 0 0
lthumb 1.02667 -658.902 0
rclavicle -8.25702e-14 -1.82882e-14 0
rhumerus 54.6114 -20.8408 -95.0141
rradius 10.1525 0 0
rwrist 88.7097 0 0
rhand -3.24475 -393.981 0
rfingers 7.12502 0 0
rthumb 22.4791 297.307 0
